<svg width="400" height="400" viewBox="0 0 400 400" fill="none" xmlns="http://www.w3.org/2000/svg">
<path fill-rule="evenodd" clip-rule="evenodd" d="M165.32 136.176C168.2 130.992 172.328 128.4 177.704 128.4H230.408C232.52 128.4 234.344 129.168 235.88 130.704C237.416 132.24 238.184 134.064 238.184 136.176V322.224C238.184 324.336 237.416 326.16 235.88 327.696C234.344 329.232 232.52 330 230.408 330H178.28C176.168 330 174.344 329.232 172.808 327.696C171.272 326.16 170.504 324.336 170.504 322.224V232.944L149.48 274.416C148.904 275.76 147.56 277.296 145.448 279.024C143.336 280.752 140.648 281.616 137.384 281.616H117.8C114.536 281.616 111.848 280.752 109.736 279.024C107.624 277.296 106.28 275.76 105.704 274.416L84.68 232.944V322.224C84.68 324.336 83.912 326.16 82.376 327.696C80.84 329.232 79.016 330 76.904 330H24.776C22.664 330 20.84 329.232 19.304 327.696C17.768 326.16 17 324.336 17 322.224V136.176C17 134.064 17.768 132.24 19.304 130.704C20.84 129.168 22.664 128.4 24.776 128.4H77.48C82.856 128.4 86.984 130.992 89.864 136.176L127.592 205.296L165.32 136.176ZM61.0132 311.821C66.6915 306.143 66.6915 296.937 61.0132 291.258C55.3351 285.58 46.1289 285.58 40.4508 291.258C34.7724 296.936 34.7724 306.143 40.4508 311.821C46.1289 317.499 55.3351 317.499 61.0132 311.821ZM215.013 290.258C220.692 295.937 220.692 305.143 215.013 310.821C209.335 316.499 200.129 316.499 194.451 310.821C188.772 305.143 188.772 295.936 194.451 290.258C200.129 284.58 209.335 284.58 215.013 290.258Z" fill="#085E58"/>
<path d="M318.939 62.774C323.086 58.6271 321.466 51.6344 315.709 50.5159C289.776 45.4775 261.886 52.9983 241.8 73.0845C219.809 95.0758 212.88 126.421 221.004 154.312C221.871 157.286 221.176 160.537 218.985 162.728L85.8487 295.864C82.7245 298.989 82.7245 304.054 85.8487 307.178L124.014 345.343C127.138 348.467 132.203 348.467 135.327 345.343L268.464 212.206C270.655 210.015 273.905 209.32 276.88 210.187C304.771 218.312 336.116 211.382 358.107 189.391C378.193 169.305 385.714 141.415 380.676 115.482C379.558 109.725 372.565 108.105 368.418 112.252L330.949 149.721C328.709 151.961 325.357 152.668 322.403 151.524L294.894 140.867C292.796 140.054 291.137 138.395 290.324 136.297L279.668 108.789C278.523 105.834 279.23 102.483 281.471 100.242L318.939 62.774ZM139.63 291.561C145.309 297.239 145.309 306.446 139.63 312.124C133.952 317.802 124.746 317.802 119.068 312.124C113.39 306.445 113.39 297.239 119.068 291.561C124.746 285.883 133.952 285.883 139.63 291.561Z" fill="#439874"/>
<path d="M325.821 312.821C331.5 307.143 331.5 297.937 325.821 292.259C320.143 286.58 310.937 286.58 305.259 292.259C299.58 297.936 299.58 307.143 305.259 312.821C310.937 318.499 320.143 318.499 325.821 312.821Z" fill="#085E58"/>
</svg>
